<?xml version="1.0" ?><!DOCTYPE svg  PUBLIC '-//W3C//DTD SVG 1.1//EN'  'http://www.w3.org/Graphics/SVG/1.1/DTD/svg11.dtd'><svg enable-background="new 0 0 128 128" height="128px" version="1.1" viewBox="0 0 128 128" width="128px" xml:space="preserve" xmlns="http://www.w3.org/2000/svg" xmlns:xlink="http://www.w3.org/1999/xlink"><g id="Layer_2"/><g id="Layer_1"><polyline fill="none" points="   64.582,60.854 106.745,60.854 106.745,89.766 99.766,89.766  " stroke="#231F20" stroke-linecap="round" stroke-linejoin="round" stroke-miterlimit="10" stroke-width="5"/><polyline fill="none" points="   33.984,89.766 26.579,89.766 26.579,60.854  " stroke="#231F20" stroke-linecap="round" stroke-linejoin="round" stroke-miterlimit="10" stroke-width="5"/><line fill="none" stroke="#231F20" stroke-linecap="round" stroke-linejoin="round" stroke-miterlimit="10" stroke-width="5" x1="77.691" x2="56.045" y1="89.766" y2="89.766"/><polyline fill="none" points="   83.472,60.57 83.472,50.671 93.984,50.671 93.984,60.57  " stroke="#231F20" stroke-linecap="round" stroke-linejoin="round" stroke-miterlimit="10" stroke-width="5"/><circle cx="45.014" cy="93.544" fill="none" r="11.664" stroke="#231F20" stroke-linecap="round" stroke-linejoin="round" stroke-miterlimit="10" stroke-width="5"/><circle cx="88.728" cy="93.544" fill="none" r="11.664" stroke="#231F20" stroke-linecap="round" stroke-linejoin="round" stroke-miterlimit="10" stroke-width="5"/><polyline fill="none" points="   26.579,60.854 26.579,35.755 64.582,35.755 64.582,60.854  " stroke="#231F20" stroke-linecap="round" stroke-linejoin="round" stroke-miterlimit="10" stroke-width="5"/><rect fill="none" height="11.86" stroke="#231F20" stroke-linecap="round" stroke-linejoin="round" stroke-miterlimit="10" stroke-width="5" width="12.95" x="39.105" y="46.168"/><path d="   M23.404,81.396c0,0-4.135,0-4.65,0" fill="none" stroke="#231F20" stroke-linecap="round" stroke-linejoin="round" stroke-miterlimit="10" stroke-width="5"/><g><path d="    M22.262,35.755c-1.026-2.521,0.678-6.422,4.285-6.422c1.783,0,36.917,0,38.7,0c3.607,0,5.312,3.901,4.285,6.422    C68.836,35.755,22.958,35.755,22.262,35.755z" fill="none" stroke="#231F20" stroke-linecap="round" stroke-linejoin="round" stroke-miterlimit="10" stroke-width="5"/></g></g></svg>